<?xml version="1.0" standalone="no"?><svg xmlns="http://www.w3.org/2000/svg" viewBox="0 0 1440 320"><path fill="#00cba9" fill-opacity="1" d="M0,96L26.7,122.7C53.3,149,107,203,160,197.3C213.3,192,267,128,320,112C373.3,96,427,128,480,133.3C533.3,139,587,117,640,101.3C693.3,85,747,75,800,85.3C853.3,96,907,128,960,154.7C1013.3,181,1067,203,1120,202.7C1173.3,203,1227,181,1280,165.3C1333.3,149,1387,139,1413,133.3L1440,128L1440,320L1413.3,320C1386.7,320,1333,320,1280,320C1226.7,320,1173,320,1120,320C1066.7,320,1013,320,960,320C906.7,320,853,320,800,320C746.7,320,693,320,640,320C586.7,320,533,320,480,320C426.7,320,373,320,320,320C266.7,320,213,320,160,320C106.7,320,53,320,27,320L0,320Z"></path></svg>